# Pythagoras Engine v1.19
# Modules:50

v 3.33333 0.00000 0.00000
v -1.66667 0.00000 -2.88675
v 0.00000 4.71405 0.00000
v 1.70370 4.50453 1.02640
v 2.81481 3.87599 2.95090
v 2.64198 6.11080 2.39493
v 4.00000 4.71405 1.15470
v 2.77778 3.14270 4.81125
v 5.74074 5.23783 0.32075
v 3.70370 1.67610 1.02640
v 4.66667 3.77124 1.15470
v 5.53086 2.02529 2.39493
v 3.48148 2.93318 2.95090
v 4.11111 4.08551 0.19245
v 3.14815 1.99037 0.06415
v 3.12346 3.38713 -1.77482
v 1.81481 3.87599 0.06415
v 0.22222 3.45697 1.53960
v -0.44444 1.57135 2.69430
v -0.81481 3.66648 3.59240
v 1.33333 2.82843 3.46410
v -1.66667 0.00000 2.88675
v 0.79012 3.07286 3.16473
v 0.23457 3.38713 2.20248
v 1.12346 4.01567 2.58738
v 0.04938 4.43469 2.65153
v 0.60494 4.12042 3.61379
v -0.28395 3.49189 3.22888
v -1.88889 2.19989 -0.57735
v -1.22222 1.25708 -0.57735
v -2.22222 1.25708 0.00000
v -1.88889 2.19989 0.57735
v -0.88889 2.19989 -0.00000
v -1.22222 1.25708 0.57735
v -0.88889 2.19989 -1.15470
v -1.55556 0.31427 0.00000
v -0.88889 2.19989 1.15470
v -2.92136 2.17404 -0.06095
v -2.80832 1.59934 0.93417
v -2.83722 2.75368 0.93417
v -2.26898 3.12484 0.00000
v -1.55556 0.31427 1.15470
v -2.22222 1.25708 1.15470
v -2.55556 0.31427 0.57735
v -1.88889 2.19989 1.73205
v -1.22222 1.25708 1.73205
v -1.88889 -0.62854 0.57735
v -1.72950 1.53084 -1.57788
v -2.36673 1.15490 -0.69135
v -2.74074 2.03455 -1.33916
v -1.82738 2.68039 -1.62552
v -2.28083 2.02715 -2.46278
v -2.71132 1.07228 -1.97673
v -3.41601 1.93844 -2.27088
v -2.86971 2.93231 -2.05382
v -2.97179 2.63087 -3.16379
v -2.95378 1.47786 -3.22353
v -3.95857 2.04353 -3.28474
v -3.90661 2.94243 -2.56182
v -3.83970 3.18205 -3.68940
v -3.31853 2.29433 -4.21253
v -4.46765 2.39789 -4.25870
v -4.83110 2.79844 -3.23851
v -4.84808 3.54265 -4.12123
v -3.97898 3.27298 -4.83206
v -5.05645 2.94557 -5.08737
v -5.58310 2.65229 -4.10250
v -5.90183 3.65413 -4.58005
v -4.98517 4.09747 -5.12458
v -5.80492 3.55001 -5.72595
v -6.17445 2.65684 -5.09427
v -6.88695 3.56189 -5.17534
v -6.24294 4.51574 -5.26896
v -6.72638 4.05096 -6.20896
v -6.68405 2.90209 -6.10100
v -7.71803 3.39630 -5.95969
v -7.55316 4.44520 -5.50588
v -7.76201 4.33132 -6.63581
v -7.22487 3.37763 -7.00361
v -8.37397 3.31832 -6.90680
v -8.69483 4.00717 -6.03739
v -8.80535 4.36605 -7.12933
v -7.89686 3.97696 -7.72649
v -0.33333 -0.00000 0.57735
v -0.33333 -0.00000 -0.57735
v -0.66667 -0.94281 0.00000
v 0.33333 -0.94281 -0.57735
v 0.33333 -0.94281 0.57735
v 0.66667 0.00000 -0.00000
v -0.33333 -1.88562 -0.57735
v 0.66667 -1.88562 0.00000
v -0.33333 -1.88562 0.57735
v 0.33333 -2.82843 -0.57735
v 0.33333 -2.82843 0.57735
v -0.66667 -2.82843 0.00000
v -0.66667 -2.82843 1.15470
v -0.66667 -2.82843 -1.15470
v 1.33333 -2.82843 0.00000
v 0.33333 -2.82843 -1.73205
v 0.66667 -1.88562 -1.15470
v -0.33333 -1.88562 -1.73205
v 1.66667 -1.88562 -0.57735
v 1.33333 -2.82843 -1.15470
v -1.33333 -1.88562 1.15470
v -1.33333 -1.88562 0.00000
v -1.66667 -2.82843 0.57735
v 0.66667 -1.88562 -2.30940
v 1.66667 -1.88562 -1.73205
v -1.66667 -2.82843 1.73205
v 2.33333 -2.82843 -0.57735
v -2.33333 -1.88562 0.57735
v -2.66667 -2.82843 1.15470
v -2.33333 -1.88562 1.73205
v -3.33333 -1.88562 1.15470
v -2.66667 -2.82843 0.00000
v -2.33333 -1.88562 -0.57735
v -1.66667 -2.82843 -0.57735
v -2.66667 -2.82843 -1.15470
v -0.66667 -2.82843 -2.30940
v -0.40741 0.41903 2.75845
v 2.59259 0.41903 1.02640
v 1.59259 -2.40940 2.75845
v 4.25926 -0.52378 3.91315
v 1.25926 -0.52378 5.64520
v 2.25926 2.30464 3.91315
v -2.18519 -0.83805 5.45275
v -1.85185 -2.72367 2.56600
v -0.18519 -3.66648 5.45275
v -1.59571 -3.68667 5.30307
v -1.69148 -2.61027 5.70992
v -2.63054 -3.27429 5.60703
v -2.67440 -2.16117 5.30307
v -3.18610 -2.96002 4.64478
v -2.51943 -3.90283 4.64478
v -1.51170 -3.62727 4.15296
v -1.00000 -2.82843 4.81125
v -1.66667 -1.88562 4.81125
v -2.59039 -2.10177 4.15296
v -2.49461 -3.17817 3.74611
v -1.55556 -2.51416 3.84900

f 1 2 3
f 4 5 6
f 7 6 5
f 6 7 4
f 7 5 8
f 7 8 9
f 5 4 3
f 5 3 8
f 4 7 9
f 4 9 3
f 10 11 12
f 13 12 11
f 12 13 10
f 13 11 9
f 13 9 8
f 11 10 1
f 11 1 9
f 10 13 8
f 10 8 1
f 14 15 16
f 17 16 15
f 16 17 14
f 17 15 1
f 17 1 3
f 15 14 9
f 15 9 1
f 14 17 3
f 14 3 9
f 18 19 20
f 21 20 19
f 21 19 22
f 21 22 8
f 19 18 3
f 19 3 22
f 18 21 8
f 18 8 3
f 23 24 25
f 25 24 26
f 25 26 27
f 27 23 25
f 26 24 28
f 27 26 28
f 28 23 27
f 28 24 18
f 28 18 20
f 24 23 21
f 24 21 18
f 23 28 20
f 23 20 21
f 29 30 31
f 32 33 29
f 34 30 2
f 34 2 22
f 30 33 3
f 30 3 2
f 33 34 22
f 33 22 3
f 33 35 29
f 35 33 30
f 30 34 36
f 36 31 30
f 33 32 37
f 37 34 33
f 29 31 38
f 39 38 31
f 39 40 38
f 38 40 41
f 29 38 41
f 39 31 32
f 39 32 40
f 41 40 32
f 29 41 32
f 36 34 42
f 42 43 44
f 44 43 31
f 31 36 44
f 37 32 45
f 45 32 43
f 45 43 46
f 46 37 45
f 34 37 46
f 36 42 47
f 44 47 42
f 47 44 36
f 43 32 31
f 46 42 34
f 42 46 43
f 35 30 48
f 49 48 30
f 49 50 48
f 35 48 51
f 49 30 29
f 49 29 50
f 51 50 29
f 35 51 29
f 51 48 52
f 53 52 48
f 53 54 52
f 51 52 55
f 53 48 50
f 53 50 54
f 55 54 50
f 51 55 50
f 55 52 56
f 57 56 52
f 57 58 56
f 55 56 59
f 57 52 54
f 57 54 58
f 59 58 54
f 55 59 54
f 59 56 60
f 61 60 56
f 61 62 60
f 59 60 63
f 61 56 58
f 61 58 62
f 63 62 58
f 59 63 58
f 63 60 64
f 65 64 60
f 65 66 64
f 63 64 67
f 65 60 62
f 65 62 66
f 67 66 62
f 63 67 62
f 67 64 68
f 69 68 64
f 69 70 68
f 67 68 71
f 69 64 66
f 69 66 70
f 71 70 66
f 67 71 66
f 71 68 72
f 73 72 68
f 73 74 72
f 71 72 75
f 73 68 70
f 73 70 74
f 75 74 70
f 71 75 70
f 75 72 76
f 77 76 72
f 77 78 76
f 75 76 79
f 77 72 74
f 77 74 78
f 79 78 74
f 75 79 74
f 79 76 80
f 81 80 76
f 81 82 80
f 80 82 83
f 79 80 83
f 81 76 78
f 81 78 82
f 83 82 78
f 79 83 78
f 84 85 86
f 86 85 87
f 88 84 86
f 87 85 89
f 88 87 89
f 89 84 88
f 89 85 2
f 89 2 1
f 85 84 22
f 85 22 2
f 84 89 1
f 84 1 22
f 86 87 90
f 90 87 91
f 92 86 90
f 91 87 88
f 92 91 88
f 88 86 92
f 90 91 93
f 93 94 95
f 94 91 92
f 92 90 95
f 95 94 96
f 92 96 94
f 95 90 97
f 97 93 95
f 94 98 91
f 98 94 93
f 93 97 99
f 100 93 99
f 101 97 90
f 100 101 90
f 90 93 100
f 93 91 100
f 100 91 102
f 103 93 100
f 102 91 98
f 98 93 103
f 96 92 104
f 104 92 105
f 105 92 95
f 106 105 95
f 95 96 106
f 99 101 107
f 100 107 101
f 107 100 99
f 100 102 108
f 103 108 102
f 108 103 100
f 106 96 109
f 104 109 96
f 103 102 110
f 98 110 102
f 110 98 103
f 104 105 111
f 112 106 109
f 112 109 113
f 113 109 104
f 104 111 113
f 113 111 114
f 112 114 111
f 114 112 113
f 115 111 116
f 117 106 115
f 116 111 105
f 117 116 105
f 105 106 117
f 115 112 111
f 112 115 106
f 115 116 118
f 117 118 116
f 118 117 115
f 99 97 119
f 101 119 97
f 119 101 99
f 120 121 122
f 122 121 123
f 122 123 124
f 123 121 125
f 124 123 125
f 125 120 124
f 125 121 1
f 125 1 8
f 121 120 22
f 121 22 1
f 120 125 8
f 120 8 22
f 124 120 126
f 126 120 127
f 128 124 126
f 127 120 122
f 128 127 122
f 122 124 128
f 129 130 131
f 132 131 130
f 132 133 131
f 133 134 131
f 129 131 134
f 135 129 134
f 136 130 129
f 129 135 136
f 136 137 130
f 132 130 137
f 132 137 138
f 138 133 132
f 133 138 139
f 133 139 134
f 135 134 139
f 135 140 136
f 138 137 140
f 138 140 139
f 135 139 140
f 136 140 127
f 136 127 128
f 140 137 126
f 140 126 127
f 137 136 128
f 137 128 126
