{
  "asset": {
    "version": "2.0",
    "generator": "Pythagoras Engine — vertex colors baked"
  },
  "extensionsUsed": [
    "KHR_materials_unlit"
  ],
  "scene": 0,
  "scenes": [
    {
      "nodes": [
        0
      ]
    }
  ],
  "nodes": [
    {
      "mesh": 0,
      "name": "PythagorasMesh"
    }
  ],
  "meshes": [
    {
      "name": "PythagorasMesh",
      "primitives": [
        {
          "attributes": {
            "POSITION": 0,
            "COLOR_0": 1
          },
          "indices": 2,
          "material": 0,
          "mode": 4
        }
      ]
    }
  ],
  "materials": [
    {
      "name": "PythagorasEngine",
      "pbrMetallicRoughness": {
        "baseColorFactor": [
          1,
          1,
          1,
          1
        ],
        "metallicFactor": 0,
        "roughnessFactor": 1
      },
      "extensions": {
        "KHR_materials_unlit": {}
      }
    }
  ],
  "accessors": [
    {
      "bufferView": 0,
      "componentType": 5126,
      "count": 300,
      "type": "VEC3",
      "min": [
        -15.165161059195707,
        -4.714045136640714,
        -9.15394152409609
      ],
      "max": [
        15.300576985509235,
        29.32559445132255,
        12.478509296484706
      ]
    },
    {
      "bufferView": 1,
      "componentType": 5126,
      "count": 300,
      "type": "VEC3"
    },
    {
      "bufferView": 2,
      "componentType": 5125,
      "count": 300,
      "type": "SCALAR"
    }
  ],
  "bufferViews": [
    {
      "buffer": 0,
      "byteOffset": 0,
      "byteLength": 3600,
      "target": 34962
    },
    {
      "buffer": 1,
      "byteOffset": 0,
      "byteLength": 3600,
      "target": 34962
    },
    {
      "buffer": 2,
      "byteOffset": 0,
      "byteLength": 1200,
      "target": 34963
    }
  ],
  "buffers": [
    {
      "byteLength": 3600,
      "uri": "data:application/octet-stream;base64,"
    },
    {
      "byteLength": 3600,
      "uri": "data:application/octet-stream;base64,"
    },
    {
      "byteLength": 1200,
      "uri": "data:application/octet-stream;base64,"
    }
  ]
}