# Pythagoras Engine v1.19
# Modules:22

v -1.66667 0.00000 2.88675
v 0.00000 4.71405 0.00000
v -1.66667 0.00000 -2.88675
v 3.33333 0.00000 0.00000
v 2.77778 3.14270 -4.81125
v 5.74074 5.23783 -0.32075
v 8.23045 1.10576 2.85111
v 3.27160 3.49189 4.59742
v 8.16187 6.55698 4.75185
v 11.48377 5.10850 0.25739
v 12.84332 3.27634 5.56099
v 13.42885 8.85545 4.19571
v 11.47225 7.35068 9.41498
v 17.00108 6.43133 8.02927
v 2.67490 8.96251 2.85111
v -1.77641 6.20780 5.28644
v -1.67810 0.64665 3.73812
v -1.33745 0.23279 3.38570
v -2.59259 5.23783 -5.13200
v -5.61728 3.49189 -0.53458
v -2.26337 0.23279 2.85111
v 2.34568 8.72971 -3.42133
v -2.67261 9.76435 0.82761
v -5.64091 4.82829 1.22492
v -2.27227 0.73574 3.51329

f 1 2 3
f 2 1 4
f 1 3 4
f 5 4 3
f 6 4 5
f 4 6 7
f 7 8 4
f 8 9 6
f 9 8 7
f 6 9 10
f 10 7 6
f 7 11 9
f 11 7 10
f 10 12 11
f 12 10 9
f 9 13 12
f 13 9 11
f 12 13 14
f 11 14 13
f 14 11 12
f 6 15 8
f 15 6 2
f 8 15 16
f 2 8 17
f 16 17 8
f 17 16 2
f 8 2 18
f 4 18 2
f 18 4 8
f 2 5 19
f 3 19 5
f 19 20 2
f 20 19 3
f 2 20 21
f 3 21 20
f 21 3 2
f 2 6 22
f 5 22 6
f 22 5 2
f 16 15 23
f 2 23 15
f 23 24 16
f 24 23 2
f 16 24 25
f 2 25 24
f 25 2 16
